<mxfile host="Electron" modified="2024-05-15T08:16:17.027Z" agent="Mozilla/5.0 (Windows NT 10.0; Win64; x64) AppleWebKit/537.36 (KHTML, like Gecko) draw.io/23.1.5 Chrome/120.0.6099.109 Electron/28.1.0 Safari/537.36" etag="JG9Lhc8av0Oh9P4GQST6" version="23.1.5" type="device">
  <diagram name="Страница — 1" id="ykgxWVOW4HB1WRcRJP_r">
    <mxGraphModel dx="1214" dy="1304" grid="1" gridSize="10" guides="1" tooltips="1" connect="1" arrows="1" fold="1" page="1" pageScale="1" pageWidth="827" pageHeight="1169" math="0" shadow="0">
      <root>
        <mxCell id="0" />
        <mxCell id="1" parent="0" />
        <mxCell id="QVLjxTjnJ6YmT43BdL0h-66" style="edgeStyle=orthogonalEdgeStyle;rounded=0;orthogonalLoop=1;jettySize=auto;html=1;exitX=0.5;exitY=1;exitDx=0;exitDy=0;entryX=0.5;entryY=0;entryDx=0;entryDy=0;" edge="1" parent="1" source="4bTrYV1-L5UAAMsCu0EJ-1" target="QVLjxTjnJ6YmT43BdL0h-11">
          <mxGeometry relative="1" as="geometry" />
        </mxCell>
        <mxCell id="4bTrYV1-L5UAAMsCu0EJ-1" value="" style="ellipse;whiteSpace=wrap;html=1;" parent="1" vertex="1">
          <mxGeometry x="516" y="80" width="120" height="120" as="geometry" />
        </mxCell>
        <mxCell id="4bTrYV1-L5UAAMsCu0EJ-2" value="" style="ellipse;whiteSpace=wrap;html=1;" parent="1" vertex="1">
          <mxGeometry x="36" y="360" width="120" height="120" as="geometry" />
        </mxCell>
        <mxCell id="4bTrYV1-L5UAAMsCu0EJ-3" value="" style="ellipse;whiteSpace=wrap;html=1;" parent="1" vertex="1">
          <mxGeometry x="676" y="360" width="120" height="120" as="geometry" />
        </mxCell>
        <mxCell id="4bTrYV1-L5UAAMsCu0EJ-4" value="" style="ellipse;whiteSpace=wrap;html=1;" parent="1" vertex="1">
          <mxGeometry x="516" y="360" width="120" height="120" as="geometry" />
        </mxCell>
        <mxCell id="4bTrYV1-L5UAAMsCu0EJ-5" value="" style="ellipse;whiteSpace=wrap;html=1;" parent="1" vertex="1">
          <mxGeometry x="356" y="360" width="120" height="120" as="geometry" />
        </mxCell>
        <mxCell id="4bTrYV1-L5UAAMsCu0EJ-12" value="" style="ellipse;whiteSpace=wrap;html=1;" parent="1" vertex="1">
          <mxGeometry x="40" y="679" width="120" height="120" as="geometry" />
        </mxCell>
        <mxCell id="4bTrYV1-L5UAAMsCu0EJ-13" value="" style="ellipse;whiteSpace=wrap;html=1;" parent="1" vertex="1">
          <mxGeometry x="516" y="679" width="120" height="120" as="geometry" />
        </mxCell>
        <mxCell id="4bTrYV1-L5UAAMsCu0EJ-14" value="" style="ellipse;whiteSpace=wrap;html=1;" parent="1" vertex="1">
          <mxGeometry x="196" y="360" width="120" height="120" as="geometry" />
        </mxCell>
        <mxCell id="4bTrYV1-L5UAAMsCu0EJ-15" value="" style="ellipse;whiteSpace=wrap;html=1;" parent="1" vertex="1">
          <mxGeometry x="196" y="679" width="120" height="120" as="geometry" />
        </mxCell>
        <mxCell id="QVLjxTjnJ6YmT43BdL0h-69" style="edgeStyle=orthogonalEdgeStyle;rounded=0;orthogonalLoop=1;jettySize=auto;html=1;exitX=0.5;exitY=1;exitDx=0;exitDy=0;entryX=0.5;entryY=0;entryDx=0;entryDy=0;" edge="1" parent="1" source="4bTrYV1-L5UAAMsCu0EJ-16" target="QVLjxTjnJ6YmT43BdL0h-52">
          <mxGeometry relative="1" as="geometry" />
        </mxCell>
        <mxCell id="4bTrYV1-L5UAAMsCu0EJ-16" value="" style="ellipse;whiteSpace=wrap;html=1;" parent="1" vertex="1">
          <mxGeometry x="356" y="679" width="120" height="120" as="geometry" />
        </mxCell>
        <mxCell id="4bTrYV1-L5UAAMsCu0EJ-17" value="" style="ellipse;whiteSpace=wrap;html=1;" parent="1" vertex="1">
          <mxGeometry x="556" y="80" width="40" height="40" as="geometry" />
        </mxCell>
        <mxCell id="4bTrYV1-L5UAAMsCu0EJ-18" value="" style="ellipse;whiteSpace=wrap;html=1;" parent="1" vertex="1">
          <mxGeometry x="76" y="360" width="40" height="40" as="geometry" />
        </mxCell>
        <mxCell id="4bTrYV1-L5UAAMsCu0EJ-19" value="" style="ellipse;whiteSpace=wrap;html=1;" parent="1" vertex="1">
          <mxGeometry x="716" y="360" width="40" height="40" as="geometry" />
        </mxCell>
        <mxCell id="4bTrYV1-L5UAAMsCu0EJ-20" value="" style="ellipse;whiteSpace=wrap;html=1;" parent="1" vertex="1">
          <mxGeometry x="556" y="360" width="40" height="40" as="geometry" />
        </mxCell>
        <mxCell id="4bTrYV1-L5UAAMsCu0EJ-21" value="" style="ellipse;whiteSpace=wrap;html=1;" parent="1" vertex="1">
          <mxGeometry x="396" y="360" width="40" height="40" as="geometry" />
        </mxCell>
        <mxCell id="4bTrYV1-L5UAAMsCu0EJ-22" value="" style="ellipse;whiteSpace=wrap;html=1;" parent="1" vertex="1">
          <mxGeometry x="80" y="679" width="40" height="40" as="geometry" />
        </mxCell>
        <mxCell id="4bTrYV1-L5UAAMsCu0EJ-23" value="" style="ellipse;whiteSpace=wrap;html=1;" parent="1" vertex="1">
          <mxGeometry x="396" y="679" width="40" height="40" as="geometry" />
        </mxCell>
        <mxCell id="4bTrYV1-L5UAAMsCu0EJ-24" value="" style="ellipse;whiteSpace=wrap;html=1;" parent="1" vertex="1">
          <mxGeometry x="556" y="679" width="40" height="40" as="geometry" />
        </mxCell>
        <mxCell id="4bTrYV1-L5UAAMsCu0EJ-25" value="" style="ellipse;whiteSpace=wrap;html=1;" parent="1" vertex="1">
          <mxGeometry x="236" y="360" width="40" height="40" as="geometry" />
        </mxCell>
        <mxCell id="4bTrYV1-L5UAAMsCu0EJ-26" value="" style="ellipse;whiteSpace=wrap;html=1;" parent="1" vertex="1">
          <mxGeometry x="236" y="679" width="40" height="40" as="geometry" />
        </mxCell>
        <mxCell id="4bTrYV1-L5UAAMsCu0EJ-27" value="&lt;font style=&quot;font-size: 18px;&quot;&gt;1&lt;/font&gt;" style="text;html=1;align=center;verticalAlign=middle;whiteSpace=wrap;rounded=0;" parent="1" vertex="1">
          <mxGeometry x="546" y="85" width="60" height="30" as="geometry" />
        </mxCell>
        <mxCell id="QVLjxTjnJ6YmT43BdL0h-70" style="edgeStyle=orthogonalEdgeStyle;rounded=0;orthogonalLoop=1;jettySize=auto;html=1;exitX=0.5;exitY=0;exitDx=0;exitDy=0;entryX=0.5;entryY=0.75;entryDx=0;entryDy=0;entryPerimeter=0;" edge="1" parent="1" source="4bTrYV1-L5UAAMsCu0EJ-28" target="QVLjxTjnJ6YmT43BdL0h-60">
          <mxGeometry relative="1" as="geometry" />
        </mxCell>
        <mxCell id="4bTrYV1-L5UAAMsCu0EJ-28" value="&lt;font style=&quot;font-size: 18px;&quot;&gt;9&lt;/font&gt;" style="text;html=1;align=center;verticalAlign=middle;whiteSpace=wrap;rounded=0;" parent="1" vertex="1">
          <mxGeometry x="546" y="679" width="60" height="30" as="geometry" />
        </mxCell>
        <mxCell id="QVLjxTjnJ6YmT43BdL0h-62" style="edgeStyle=orthogonalEdgeStyle;rounded=0;orthogonalLoop=1;jettySize=auto;html=1;exitX=0.5;exitY=0;exitDx=0;exitDy=0;" edge="1" parent="1" source="4bTrYV1-L5UAAMsCu0EJ-29" target="QVLjxTjnJ6YmT43BdL0h-3">
          <mxGeometry relative="1" as="geometry" />
        </mxCell>
        <mxCell id="4bTrYV1-L5UAAMsCu0EJ-29" value="&lt;font style=&quot;font-size: 18px;&quot;&gt;8&lt;/font&gt;" style="text;html=1;align=center;verticalAlign=middle;whiteSpace=wrap;rounded=0;" parent="1" vertex="1">
          <mxGeometry x="226" y="360" width="60" height="30" as="geometry" />
        </mxCell>
        <mxCell id="4bTrYV1-L5UAAMsCu0EJ-30" value="&lt;font style=&quot;font-size: 18px;&quot;&gt;7&lt;/font&gt;" style="text;html=1;align=center;verticalAlign=middle;whiteSpace=wrap;rounded=0;" parent="1" vertex="1">
          <mxGeometry x="226" y="679" width="60" height="30" as="geometry" />
        </mxCell>
        <mxCell id="4bTrYV1-L5UAAMsCu0EJ-31" value="&lt;font style=&quot;font-size: 18px;&quot;&gt;6&lt;/font&gt;" style="text;html=1;align=center;verticalAlign=middle;whiteSpace=wrap;rounded=0;" parent="1" vertex="1">
          <mxGeometry x="70" y="679" width="60" height="30" as="geometry" />
        </mxCell>
        <mxCell id="4bTrYV1-L5UAAMsCu0EJ-32" value="&lt;font style=&quot;font-size: 18px;&quot;&gt;5&lt;/font&gt;" style="text;html=1;align=center;verticalAlign=middle;whiteSpace=wrap;rounded=0;" parent="1" vertex="1">
          <mxGeometry x="66" y="360" width="60" height="30" as="geometry" />
        </mxCell>
        <mxCell id="QVLjxTjnJ6YmT43BdL0h-65" style="edgeStyle=orthogonalEdgeStyle;rounded=0;orthogonalLoop=1;jettySize=auto;html=1;exitX=0.5;exitY=0;exitDx=0;exitDy=0;entryX=0.5;entryY=1;entryDx=0;entryDy=0;" edge="1" parent="1" source="4bTrYV1-L5UAAMsCu0EJ-33" target="QVLjxTjnJ6YmT43BdL0h-27">
          <mxGeometry relative="1" as="geometry" />
        </mxCell>
        <mxCell id="4bTrYV1-L5UAAMsCu0EJ-33" value="&lt;font style=&quot;font-size: 18px;&quot;&gt;4&lt;/font&gt;" style="text;html=1;align=center;verticalAlign=middle;whiteSpace=wrap;rounded=0;" parent="1" vertex="1">
          <mxGeometry x="706" y="360" width="60" height="30" as="geometry" />
        </mxCell>
        <mxCell id="4bTrYV1-L5UAAMsCu0EJ-34" value="&lt;font style=&quot;font-size: 18px;&quot;&gt;3&lt;/font&gt;" style="text;html=1;align=center;verticalAlign=middle;whiteSpace=wrap;rounded=0;" parent="1" vertex="1">
          <mxGeometry x="546" y="360" width="60" height="30" as="geometry" />
        </mxCell>
        <mxCell id="4bTrYV1-L5UAAMsCu0EJ-35" value="&lt;font style=&quot;font-size: 18px;&quot;&gt;2&lt;/font&gt;" style="text;html=1;align=center;verticalAlign=middle;whiteSpace=wrap;rounded=0;" parent="1" vertex="1">
          <mxGeometry x="386" y="360" width="60" height="30" as="geometry" />
        </mxCell>
        <mxCell id="4bTrYV1-L5UAAMsCu0EJ-36" value="&lt;font style=&quot;font-size: 18px;&quot;&gt;10&lt;/font&gt;" style="text;html=1;align=center;verticalAlign=middle;whiteSpace=wrap;rounded=0;" parent="1" vertex="1">
          <mxGeometry x="386" y="679" width="60" height="30" as="geometry" />
        </mxCell>
        <mxCell id="4bTrYV1-L5UAAMsCu0EJ-38" value="&lt;span style=&quot;color: rgb(0, 0, 0); font-family: Helvetica; font-size: 12px; font-style: normal; font-variant-ligatures: normal; font-variant-caps: normal; font-weight: 400; letter-spacing: normal; orphans: 2; text-align: left; text-indent: 0px; text-transform: none; widows: 2; word-spacing: 0px; -webkit-text-stroke-width: 0px; background-color: rgb(251, 251, 251); text-decoration-thickness: initial; text-decoration-style: initial; text-decoration-color: initial; float: none; display: inline !important;&quot;&gt;John&lt;/span&gt;" style="text;whiteSpace=wrap;html=1;" parent="1" vertex="1">
          <mxGeometry x="561" y="115" width="30" height="30" as="geometry" />
        </mxCell>
        <mxCell id="4bTrYV1-L5UAAMsCu0EJ-39" value="&lt;span style=&quot;color: rgb(0, 0, 0); font-family: Helvetica; font-size: 12px; font-style: normal; font-variant-ligatures: normal; font-variant-caps: normal; font-weight: 400; letter-spacing: normal; orphans: 2; text-align: left; text-indent: 0px; text-transform: none; widows: 2; word-spacing: 0px; -webkit-text-stroke-width: 0px; background-color: rgb(251, 251, 251); text-decoration-thickness: initial; text-decoration-style: initial; text-decoration-color: initial; float: none; display: inline !important;&quot;&gt;john@example.com&lt;/span&gt;" style="text;whiteSpace=wrap;html=1;" parent="1" vertex="1">
          <mxGeometry x="521" y="130" width="110" height="20" as="geometry" />
        </mxCell>
        <mxCell id="4bTrYV1-L5UAAMsCu0EJ-40" value="&lt;span style=&quot;color: rgb(0, 0, 0); font-family: Helvetica; font-size: 12px; font-style: normal; font-variant-ligatures: normal; font-variant-caps: normal; font-weight: 400; letter-spacing: normal; orphans: 2; text-align: left; text-indent: 0px; text-transform: none; widows: 2; word-spacing: 0px; -webkit-text-stroke-width: 0px; background-color: rgb(251, 251, 251); text-decoration-thickness: initial; text-decoration-style: initial; text-decoration-color: initial; float: none; display: inline !important;&quot;&gt;2024-04-25&lt;/span&gt;" style="text;whiteSpace=wrap;html=1;" parent="1" vertex="1">
          <mxGeometry x="545" y="150" width="70" height="20" as="geometry" />
        </mxCell>
        <mxCell id="4bTrYV1-L5UAAMsCu0EJ-41" value="&lt;span style=&quot;color: rgb(0, 0, 0); font-family: Helvetica; font-size: 12px; font-style: normal; font-variant-ligatures: normal; font-variant-caps: normal; font-weight: 400; letter-spacing: normal; orphans: 2; text-align: left; text-indent: 0px; text-transform: none; widows: 2; word-spacing: 0px; -webkit-text-stroke-width: 0px; background-color: rgb(251, 251, 251); text-decoration-thickness: initial; text-decoration-style: initial; text-decoration-color: initial; float: none; display: inline !important;&quot;&gt;Alice&lt;/span&gt;" style="text;whiteSpace=wrap;html=1;" parent="1" vertex="1">
          <mxGeometry x="401" y="395" width="30" height="20" as="geometry" />
        </mxCell>
        <mxCell id="4bTrYV1-L5UAAMsCu0EJ-42" value="&lt;span style=&quot;color: rgb(0, 0, 0); font-family: Helvetica; font-size: 12px; font-style: normal; font-variant-ligatures: normal; font-variant-caps: normal; font-weight: 400; letter-spacing: normal; orphans: 2; text-align: left; text-indent: 0px; text-transform: none; widows: 2; word-spacing: 0px; -webkit-text-stroke-width: 0px; background-color: rgb(251, 251, 251); text-decoration-thickness: initial; text-decoration-style: initial; text-decoration-color: initial; float: none; display: inline !important;&quot;&gt;2024-04-25&lt;/span&gt;" style="text;whiteSpace=wrap;html=1;" parent="1" vertex="1">
          <mxGeometry x="381" y="749" width="70" height="20" as="geometry" />
        </mxCell>
        <mxCell id="4bTrYV1-L5UAAMsCu0EJ-43" value="&lt;span style=&quot;color: rgb(0, 0, 0); font-family: Helvetica; font-size: 12px; font-style: normal; font-variant-ligatures: normal; font-variant-caps: normal; font-weight: 400; letter-spacing: normal; orphans: 2; text-align: left; text-indent: 0px; text-transform: none; widows: 2; word-spacing: 0px; -webkit-text-stroke-width: 0px; background-color: rgb(251, 251, 251); text-decoration-thickness: initial; text-decoration-style: initial; text-decoration-color: initial; float: none; display: inline !important;&quot;&gt;2024-04-25&lt;/span&gt;" style="text;whiteSpace=wrap;html=1;" parent="1" vertex="1">
          <mxGeometry x="541" y="749" width="70" height="20" as="geometry" />
        </mxCell>
        <mxCell id="4bTrYV1-L5UAAMsCu0EJ-44" value="&lt;span style=&quot;color: rgb(0, 0, 0); font-family: Helvetica; font-size: 12px; font-style: normal; font-variant-ligatures: normal; font-variant-caps: normal; font-weight: 400; letter-spacing: normal; orphans: 2; text-align: left; text-indent: 0px; text-transform: none; widows: 2; word-spacing: 0px; -webkit-text-stroke-width: 0px; background-color: rgb(251, 251, 251); text-decoration-thickness: initial; text-decoration-style: initial; text-decoration-color: initial; float: none; display: inline !important;&quot;&gt;2024-04-25&lt;/span&gt;" style="text;whiteSpace=wrap;html=1;" parent="1" vertex="1">
          <mxGeometry x="221" y="430" width="70" height="20" as="geometry" />
        </mxCell>
        <mxCell id="4bTrYV1-L5UAAMsCu0EJ-45" value="&lt;span style=&quot;color: rgb(0, 0, 0); font-family: Helvetica; font-size: 12px; font-style: normal; font-variant-ligatures: normal; font-variant-caps: normal; font-weight: 400; letter-spacing: normal; orphans: 2; text-align: left; text-indent: 0px; text-transform: none; widows: 2; word-spacing: 0px; -webkit-text-stroke-width: 0px; background-color: rgb(251, 251, 251); text-decoration-thickness: initial; text-decoration-style: initial; text-decoration-color: initial; float: none; display: inline !important;&quot;&gt;2024-04-25&lt;/span&gt;" style="text;whiteSpace=wrap;html=1;" parent="1" vertex="1">
          <mxGeometry x="221" y="749" width="70" height="20" as="geometry" />
        </mxCell>
        <mxCell id="4bTrYV1-L5UAAMsCu0EJ-46" value="&lt;span style=&quot;color: rgb(0, 0, 0); font-family: Helvetica; font-size: 12px; font-style: normal; font-variant-ligatures: normal; font-variant-caps: normal; font-weight: 400; letter-spacing: normal; orphans: 2; text-align: left; text-indent: 0px; text-transform: none; widows: 2; word-spacing: 0px; -webkit-text-stroke-width: 0px; background-color: rgb(251, 251, 251); text-decoration-thickness: initial; text-decoration-style: initial; text-decoration-color: initial; float: none; display: inline !important;&quot;&gt;2024-04-25&lt;/span&gt;" style="text;whiteSpace=wrap;html=1;" parent="1" vertex="1">
          <mxGeometry x="69" y="749" width="70" height="20" as="geometry" />
        </mxCell>
        <mxCell id="4bTrYV1-L5UAAMsCu0EJ-47" value="&lt;span style=&quot;color: rgb(0, 0, 0); font-family: Helvetica; font-size: 12px; font-style: normal; font-variant-ligatures: normal; font-variant-caps: normal; font-weight: 400; letter-spacing: normal; orphans: 2; text-align: left; text-indent: 0px; text-transform: none; widows: 2; word-spacing: 0px; -webkit-text-stroke-width: 0px; background-color: rgb(251, 251, 251); text-decoration-thickness: initial; text-decoration-style: initial; text-decoration-color: initial; float: none; display: inline !important;&quot;&gt;2024-04-25&lt;/span&gt;" style="text;whiteSpace=wrap;html=1;" parent="1" vertex="1">
          <mxGeometry x="61" y="430" width="70" height="20" as="geometry" />
        </mxCell>
        <mxCell id="4bTrYV1-L5UAAMsCu0EJ-48" value="&lt;span style=&quot;color: rgb(0, 0, 0); font-family: Helvetica; font-size: 12px; font-style: normal; font-variant-ligatures: normal; font-variant-caps: normal; font-weight: 400; letter-spacing: normal; orphans: 2; text-align: left; text-indent: 0px; text-transform: none; widows: 2; word-spacing: 0px; -webkit-text-stroke-width: 0px; background-color: rgb(251, 251, 251); text-decoration-thickness: initial; text-decoration-style: initial; text-decoration-color: initial; float: none; display: inline !important;&quot;&gt;2024-04-25&lt;/span&gt;" style="text;whiteSpace=wrap;html=1;" parent="1" vertex="1">
          <mxGeometry x="701" y="430" width="70" height="20" as="geometry" />
        </mxCell>
        <mxCell id="4bTrYV1-L5UAAMsCu0EJ-49" value="&lt;span style=&quot;color: rgb(0, 0, 0); font-family: Helvetica; font-size: 12px; font-style: normal; font-variant-ligatures: normal; font-variant-caps: normal; font-weight: 400; letter-spacing: normal; orphans: 2; text-align: left; text-indent: 0px; text-transform: none; widows: 2; word-spacing: 0px; -webkit-text-stroke-width: 0px; background-color: rgb(251, 251, 251); text-decoration-thickness: initial; text-decoration-style: initial; text-decoration-color: initial; float: none; display: inline !important;&quot;&gt;2024-04-25&lt;/span&gt;" style="text;whiteSpace=wrap;html=1;" parent="1" vertex="1">
          <mxGeometry x="541" y="430" width="70" height="20" as="geometry" />
        </mxCell>
        <mxCell id="4bTrYV1-L5UAAMsCu0EJ-50" value="&lt;span style=&quot;color: rgb(0, 0, 0); font-family: Helvetica; font-size: 12px; font-style: normal; font-variant-ligatures: normal; font-variant-caps: normal; font-weight: 400; letter-spacing: normal; orphans: 2; text-align: left; text-indent: 0px; text-transform: none; widows: 2; word-spacing: 0px; -webkit-text-stroke-width: 0px; background-color: rgb(251, 251, 251); text-decoration-thickness: initial; text-decoration-style: initial; text-decoration-color: initial; float: none; display: inline !important;&quot;&gt;2024-04-25&lt;/span&gt;" style="text;whiteSpace=wrap;html=1;" parent="1" vertex="1">
          <mxGeometry x="381" y="430" width="70" height="20" as="geometry" />
        </mxCell>
        <mxCell id="4bTrYV1-L5UAAMsCu0EJ-51" value="&lt;span style=&quot;color: rgb(0, 0, 0); font-family: Helvetica; font-size: 12px; font-style: normal; font-variant-ligatures: normal; font-variant-caps: normal; font-weight: 400; letter-spacing: normal; orphans: 2; text-align: left; text-indent: 0px; text-transform: none; widows: 2; word-spacing: 0px; -webkit-text-stroke-width: 0px; background-color: rgb(251, 251, 251); text-decoration-thickness: initial; text-decoration-style: initial; text-decoration-color: initial; float: none; display: inline !important;&quot;&gt;alice@example.com&lt;/span&gt;" style="text;whiteSpace=wrap;html=1;" parent="1" vertex="1">
          <mxGeometry x="361" y="410" width="110" height="20" as="geometry" />
        </mxCell>
        <mxCell id="4bTrYV1-L5UAAMsCu0EJ-52" value="&lt;span style=&quot;color: rgb(0, 0, 0); font-family: Helvetica; font-size: 12px; font-style: normal; font-variant-ligatures: normal; font-variant-caps: normal; font-weight: 400; letter-spacing: normal; orphans: 2; text-align: left; text-indent: 0px; text-transform: none; widows: 2; word-spacing: 0px; -webkit-text-stroke-width: 0px; background-color: rgb(251, 251, 251); text-decoration-thickness: initial; text-decoration-style: initial; text-decoration-color: initial; float: none; display: inline !important;&quot;&gt;bob@example.com&lt;/span&gt;" style="text;whiteSpace=wrap;html=1;" parent="1" vertex="1">
          <mxGeometry x="521" y="410" width="110" height="20" as="geometry" />
        </mxCell>
        <mxCell id="4bTrYV1-L5UAAMsCu0EJ-53" value="&lt;span style=&quot;color: rgb(0, 0, 0); font-family: Helvetica; font-size: 12px; font-style: normal; font-variant-ligatures: normal; font-variant-caps: normal; font-weight: 400; letter-spacing: normal; orphans: 2; text-align: left; text-indent: 0px; text-transform: none; widows: 2; word-spacing: 0px; -webkit-text-stroke-width: 0px; background-color: rgb(251, 251, 251); text-decoration-thickness: initial; text-decoration-style: initial; text-decoration-color: initial; float: none; display: inline !important;&quot;&gt;emily@example.com&lt;/span&gt;" style="text;whiteSpace=wrap;html=1;" parent="1" vertex="1">
          <mxGeometry x="681" y="410" width="110" height="20" as="geometry" />
        </mxCell>
        <mxCell id="4bTrYV1-L5UAAMsCu0EJ-54" value="&lt;span style=&quot;color: rgb(0, 0, 0); font-family: Helvetica; font-size: 12px; font-style: normal; font-variant-ligatures: normal; font-variant-caps: normal; font-weight: 400; letter-spacing: normal; orphans: 2; text-align: left; text-indent: 0px; text-transform: none; widows: 2; word-spacing: 0px; -webkit-text-stroke-width: 0px; background-color: rgb(251, 251, 251); text-decoration-thickness: initial; text-decoration-style: initial; text-decoration-color: initial; float: none; display: inline !important;&quot;&gt;michael@example.com&lt;/span&gt;" style="text;whiteSpace=wrap;html=1;" parent="1" vertex="1">
          <mxGeometry x="31" y="410" width="130" height="20" as="geometry" />
        </mxCell>
        <mxCell id="4bTrYV1-L5UAAMsCu0EJ-55" value="&lt;span style=&quot;color: rgb(0, 0, 0); font-family: Helvetica; font-size: 12px; font-style: normal; font-variant-ligatures: normal; font-variant-caps: normal; font-weight: 400; letter-spacing: normal; orphans: 2; text-align: left; text-indent: 0px; text-transform: none; widows: 2; word-spacing: 0px; -webkit-text-stroke-width: 0px; background-color: rgb(251, 251, 251); text-decoration-thickness: initial; text-decoration-style: initial; text-decoration-color: initial; float: none; display: inline !important;&quot;&gt;sophia@example.com&lt;/span&gt;" style="text;whiteSpace=wrap;html=1;" parent="1" vertex="1">
          <mxGeometry x="40" y="729" width="120" height="20" as="geometry" />
        </mxCell>
        <mxCell id="4bTrYV1-L5UAAMsCu0EJ-56" value="&lt;span style=&quot;color: rgb(0, 0, 0); font-family: Helvetica; font-size: 12px; font-style: normal; font-variant-ligatures: normal; font-variant-caps: normal; font-weight: 400; letter-spacing: normal; orphans: 2; text-align: left; text-indent: 0px; text-transform: none; widows: 2; word-spacing: 0px; -webkit-text-stroke-width: 0px; background-color: rgb(251, 251, 251); text-decoration-thickness: initial; text-decoration-style: initial; text-decoration-color: initial; float: none; display: inline !important;&quot;&gt;william@example.com&lt;/span&gt;" style="text;whiteSpace=wrap;html=1;" parent="1" vertex="1">
          <mxGeometry x="196" y="729" width="120" height="20" as="geometry" />
        </mxCell>
        <mxCell id="4bTrYV1-L5UAAMsCu0EJ-57" value="&lt;span style=&quot;color: rgb(0, 0, 0); font-family: Helvetica; font-size: 12px; font-style: normal; font-variant-ligatures: normal; font-variant-caps: normal; font-weight: 400; letter-spacing: normal; orphans: 2; text-align: left; text-indent: 0px; text-transform: none; widows: 2; word-spacing: 0px; -webkit-text-stroke-width: 0px; background-color: rgb(251, 251, 251); text-decoration-thickness: initial; text-decoration-style: initial; text-decoration-color: initial; float: none; display: inline !important;&quot;&gt;olivia@example.com&lt;/span&gt;" style="text;whiteSpace=wrap;html=1;" parent="1" vertex="1">
          <mxGeometry x="201" y="410" width="110" height="20" as="geometry" />
        </mxCell>
        <mxCell id="4bTrYV1-L5UAAMsCu0EJ-58" value="&lt;span style=&quot;color: rgb(0, 0, 0); font-family: Helvetica; font-size: 12px; font-style: normal; font-variant-ligatures: normal; font-variant-caps: normal; font-weight: 400; letter-spacing: normal; orphans: 2; text-align: left; text-indent: 0px; text-transform: none; widows: 2; word-spacing: 0px; -webkit-text-stroke-width: 0px; background-color: rgb(251, 251, 251); text-decoration-thickness: initial; text-decoration-style: initial; text-decoration-color: initial; float: none; display: inline !important;&quot;&gt;james@example.com&lt;/span&gt;" style="text;whiteSpace=wrap;html=1;" parent="1" vertex="1">
          <mxGeometry x="518.5" y="729" width="115" height="20" as="geometry" />
        </mxCell>
        <mxCell id="4bTrYV1-L5UAAMsCu0EJ-59" value="&lt;span style=&quot;color: rgb(0, 0, 0); font-family: Helvetica; font-size: 12px; font-style: normal; font-variant-ligatures: normal; font-variant-caps: normal; font-weight: 400; letter-spacing: normal; orphans: 2; text-align: left; text-indent: 0px; text-transform: none; widows: 2; word-spacing: 0px; -webkit-text-stroke-width: 0px; background-color: rgb(251, 251, 251); text-decoration-thickness: initial; text-decoration-style: initial; text-decoration-color: initial; float: none; display: inline !important;&quot;&gt;emma@example.com&lt;/span&gt;" style="text;whiteSpace=wrap;html=1;" parent="1" vertex="1">
          <mxGeometry x="358.5" y="729" width="115" height="20" as="geometry" />
        </mxCell>
        <mxCell id="4bTrYV1-L5UAAMsCu0EJ-60" value="&lt;span style=&quot;color: rgb(0, 0, 0); font-family: Helvetica; font-size: 12px; font-style: normal; font-variant-ligatures: normal; font-variant-caps: normal; font-weight: 400; letter-spacing: normal; orphans: 2; text-align: left; text-indent: 0px; text-transform: none; widows: 2; word-spacing: 0px; -webkit-text-stroke-width: 0px; background-color: rgb(251, 251, 251); text-decoration-thickness: initial; text-decoration-style: initial; text-decoration-color: initial; float: none; display: inline !important;&quot;&gt;Bob&lt;/span&gt;" style="text;whiteSpace=wrap;html=1;" parent="1" vertex="1">
          <mxGeometry x="561" y="400" width="30" height="20" as="geometry" />
        </mxCell>
        <mxCell id="4bTrYV1-L5UAAMsCu0EJ-61" value="&lt;span style=&quot;color: rgb(0, 0, 0); font-family: Helvetica; font-size: 12px; font-style: normal; font-variant-ligatures: normal; font-variant-caps: normal; font-weight: 400; letter-spacing: normal; orphans: 2; text-align: left; text-indent: 0px; text-transform: none; widows: 2; word-spacing: 0px; -webkit-text-stroke-width: 0px; background-color: rgb(251, 251, 251); text-decoration-thickness: initial; text-decoration-style: initial; text-decoration-color: initial; float: none; display: inline !important;&quot;&gt;Emily&lt;/span&gt;" style="text;whiteSpace=wrap;html=1;" parent="1" vertex="1">
          <mxGeometry x="721" y="400" width="30" height="30" as="geometry" />
        </mxCell>
        <mxCell id="4bTrYV1-L5UAAMsCu0EJ-62" value="&lt;span style=&quot;color: rgb(0, 0, 0); font-family: Helvetica; font-size: 12px; font-style: normal; font-variant-ligatures: normal; font-variant-caps: normal; font-weight: 400; letter-spacing: normal; orphans: 2; text-align: left; text-indent: 0px; text-transform: none; widows: 2; word-spacing: 0px; -webkit-text-stroke-width: 0px; background-color: rgb(251, 251, 251); text-decoration-thickness: initial; text-decoration-style: initial; text-decoration-color: initial; float: none; display: inline !important;&quot;&gt;Michael&lt;/span&gt;" style="text;whiteSpace=wrap;html=1;" parent="1" vertex="1">
          <mxGeometry x="71" y="400" width="50" height="20" as="geometry" />
        </mxCell>
        <mxCell id="4bTrYV1-L5UAAMsCu0EJ-63" value="&lt;span style=&quot;color: rgb(0, 0, 0); font-family: Helvetica; font-size: 12px; font-style: normal; font-variant-ligatures: normal; font-variant-caps: normal; font-weight: 400; letter-spacing: normal; orphans: 2; text-align: left; text-indent: 0px; text-transform: none; widows: 2; word-spacing: 0px; -webkit-text-stroke-width: 0px; background-color: rgb(251, 251, 251); text-decoration-thickness: initial; text-decoration-style: initial; text-decoration-color: initial; float: none; display: inline !important;&quot;&gt;Sophia&lt;/span&gt;" style="text;whiteSpace=wrap;html=1;" parent="1" vertex="1">
          <mxGeometry x="80" y="713" width="40" height="40" as="geometry" />
        </mxCell>
        <mxCell id="4bTrYV1-L5UAAMsCu0EJ-64" value="&lt;span style=&quot;color: rgb(0, 0, 0); font-family: Helvetica; font-size: 12px; font-style: normal; font-variant-ligatures: normal; font-variant-caps: normal; font-weight: 400; letter-spacing: normal; orphans: 2; text-align: left; text-indent: 0px; text-transform: none; widows: 2; word-spacing: 0px; -webkit-text-stroke-width: 0px; background-color: rgb(251, 251, 251); text-decoration-thickness: initial; text-decoration-style: initial; text-decoration-color: initial; float: none; display: inline !important;&quot;&gt;William&lt;/span&gt;" style="text;whiteSpace=wrap;html=1;" parent="1" vertex="1">
          <mxGeometry x="236" y="713" width="40" height="20" as="geometry" />
        </mxCell>
        <mxCell id="4bTrYV1-L5UAAMsCu0EJ-65" value="&lt;span style=&quot;color: rgb(0, 0, 0); font-family: Helvetica; font-size: 12px; font-style: normal; font-variant-ligatures: normal; font-variant-caps: normal; font-weight: 400; letter-spacing: normal; orphans: 2; text-align: left; text-indent: 0px; text-transform: none; widows: 2; word-spacing: 0px; -webkit-text-stroke-width: 0px; background-color: rgb(251, 251, 251); text-decoration-thickness: initial; text-decoration-style: initial; text-decoration-color: initial; float: none; display: inline !important;&quot;&gt;Olivia&lt;/span&gt;" style="text;whiteSpace=wrap;html=1;" parent="1" vertex="1">
          <mxGeometry x="241" y="394" width="30" height="20" as="geometry" />
        </mxCell>
        <mxCell id="4bTrYV1-L5UAAMsCu0EJ-66" value="&lt;span style=&quot;color: rgb(0, 0, 0); font-family: Helvetica; font-size: 12px; font-style: normal; font-variant-ligatures: normal; font-variant-caps: normal; font-weight: 400; letter-spacing: normal; orphans: 2; text-align: left; text-indent: 0px; text-transform: none; widows: 2; word-spacing: 0px; -webkit-text-stroke-width: 0px; background-color: rgb(251, 251, 251); text-decoration-thickness: initial; text-decoration-style: initial; text-decoration-color: initial; float: none; display: inline !important;&quot;&gt;James&lt;/span&gt;" style="text;whiteSpace=wrap;html=1;" parent="1" vertex="1">
          <mxGeometry x="556" y="713" width="40" height="20" as="geometry" />
        </mxCell>
        <mxCell id="4bTrYV1-L5UAAMsCu0EJ-67" value="&lt;span style=&quot;color: rgb(0, 0, 0); font-family: Helvetica; font-size: 12px; font-style: normal; font-variant-ligatures: normal; font-variant-caps: normal; font-weight: 400; letter-spacing: normal; orphans: 2; text-align: left; text-indent: 0px; text-transform: none; widows: 2; word-spacing: 0px; -webkit-text-stroke-width: 0px; background-color: rgb(251, 251, 251); text-decoration-thickness: initial; text-decoration-style: initial; text-decoration-color: initial; float: none; display: inline !important;&quot;&gt;Emma&lt;/span&gt;" style="text;whiteSpace=wrap;html=1;" parent="1" vertex="1">
          <mxGeometry x="396" y="713" width="40" height="20" as="geometry" />
        </mxCell>
        <mxCell id="QVLjxTjnJ6YmT43BdL0h-1" value="&lt;span style=&quot;color: rgb(0, 0, 0); font-family: Helvetica; font-size: 12px; font-style: normal; font-variant-ligatures: normal; font-variant-caps: normal; font-weight: 400; letter-spacing: normal; orphans: 2; text-align: left; text-indent: 0px; text-transform: none; widows: 2; word-spacing: 0px; -webkit-text-stroke-width: 0px; background-color: rgb(251, 251, 251); text-decoration-thickness: initial; text-decoration-style: initial; text-decoration-color: initial; float: none; display: inline !important;&quot;&gt;UK&lt;/span&gt;" style="text;whiteSpace=wrap;html=1;" vertex="1" parent="1">
          <mxGeometry x="726" y="290" width="20" height="40" as="geometry" />
        </mxCell>
        <mxCell id="QVLjxTjnJ6YmT43BdL0h-2" value="" style="group" vertex="1" connectable="0" parent="1">
          <mxGeometry x="196" y="240" width="120" height="90" as="geometry" />
        </mxCell>
        <mxCell id="QVLjxTjnJ6YmT43BdL0h-3" value="" style="rounded=0;whiteSpace=wrap;html=1;" vertex="1" parent="QVLjxTjnJ6YmT43BdL0h-2">
          <mxGeometry width="120" height="80" as="geometry" />
        </mxCell>
        <mxCell id="QVLjxTjnJ6YmT43BdL0h-4" value="" style="rounded=0;whiteSpace=wrap;html=1;" vertex="1" parent="QVLjxTjnJ6YmT43BdL0h-2">
          <mxGeometry x="40" width="40" height="30" as="geometry" />
        </mxCell>
        <mxCell id="QVLjxTjnJ6YmT43BdL0h-5" value="&lt;font style=&quot;font-size: 18px;&quot;&gt;1&lt;/font&gt;" style="text;html=1;align=center;verticalAlign=middle;whiteSpace=wrap;rounded=0;" vertex="1" parent="QVLjxTjnJ6YmT43BdL0h-2">
          <mxGeometry x="30" width="60" height="30" as="geometry" />
        </mxCell>
        <mxCell id="QVLjxTjnJ6YmT43BdL0h-6" value="&lt;span style=&quot;color: rgb(0, 0, 0); font-family: Helvetica; font-size: 12px; font-style: normal; font-variant-ligatures: normal; font-variant-caps: normal; font-weight: 400; letter-spacing: normal; orphans: 2; text-align: left; text-indent: 0px; text-transform: none; widows: 2; word-spacing: 0px; -webkit-text-stroke-width: 0px; background-color: rgb(251, 251, 251); text-decoration-thickness: initial; text-decoration-style: initial; text-decoration-color: initial; float: none; display: inline !important;&quot;&gt;Paris&lt;/span&gt;" style="text;whiteSpace=wrap;html=1;" vertex="1" parent="QVLjxTjnJ6YmT43BdL0h-2">
          <mxGeometry x="45" y="30" width="30" height="40" as="geometry" />
        </mxCell>
        <mxCell id="QVLjxTjnJ6YmT43BdL0h-7" value="&lt;span style=&quot;color: rgb(0, 0, 0); font-family: Helvetica; font-size: 12px; font-style: normal; font-variant-ligatures: normal; font-variant-caps: normal; font-weight: 400; letter-spacing: normal; orphans: 2; text-align: left; text-indent: 0px; text-transform: none; widows: 2; word-spacing: 0px; -webkit-text-stroke-width: 0px; background-color: rgb(251, 251, 251); text-decoration-thickness: initial; text-decoration-style: initial; text-decoration-color: initial; float: none; display: inline !important;&quot;&gt;France&lt;/span&gt;" style="text;whiteSpace=wrap;html=1;" vertex="1" parent="QVLjxTjnJ6YmT43BdL0h-2">
          <mxGeometry x="40" y="50" width="40" height="40" as="geometry" />
        </mxCell>
        <mxCell id="QVLjxTjnJ6YmT43BdL0h-8" value="" style="group" vertex="1" connectable="0" parent="1">
          <mxGeometry x="516" y="240" width="120" height="90" as="geometry" />
        </mxCell>
        <mxCell id="QVLjxTjnJ6YmT43BdL0h-9" value="" style="rounded=0;whiteSpace=wrap;html=1;" vertex="1" parent="QVLjxTjnJ6YmT43BdL0h-8">
          <mxGeometry width="120" height="80" as="geometry" />
        </mxCell>
        <mxCell id="QVLjxTjnJ6YmT43BdL0h-10" value="" style="rounded=0;whiteSpace=wrap;html=1;" vertex="1" parent="QVLjxTjnJ6YmT43BdL0h-8">
          <mxGeometry x="40" width="40" height="30" as="geometry" />
        </mxCell>
        <mxCell id="QVLjxTjnJ6YmT43BdL0h-11" value="&lt;font style=&quot;font-size: 18px;&quot;&gt;2&lt;/font&gt;" style="text;html=1;align=center;verticalAlign=middle;whiteSpace=wrap;rounded=0;" vertex="1" parent="QVLjxTjnJ6YmT43BdL0h-8">
          <mxGeometry x="30" width="60" height="30" as="geometry" />
        </mxCell>
        <mxCell id="QVLjxTjnJ6YmT43BdL0h-12" value="&lt;span style=&quot;color: rgb(0, 0, 0); font-family: Helvetica; font-size: 12px; font-style: normal; font-variant-ligatures: normal; font-variant-caps: normal; font-weight: 400; letter-spacing: normal; orphans: 2; text-align: left; text-indent: 0px; text-transform: none; widows: 2; word-spacing: 0px; -webkit-text-stroke-width: 0px; background-color: rgb(251, 251, 251); text-decoration-thickness: initial; text-decoration-style: initial; text-decoration-color: initial; float: none; display: inline !important;&quot;&gt;Rome&lt;/span&gt;" style="text;whiteSpace=wrap;html=1;" vertex="1" parent="QVLjxTjnJ6YmT43BdL0h-8">
          <mxGeometry x="40" y="30" width="40" height="40" as="geometry" />
        </mxCell>
        <mxCell id="QVLjxTjnJ6YmT43BdL0h-13" value="&lt;span style=&quot;color: rgb(0, 0, 0); font-family: Helvetica; font-size: 12px; font-style: normal; font-variant-ligatures: normal; font-variant-caps: normal; font-weight: 400; letter-spacing: normal; orphans: 2; text-align: left; text-indent: 0px; text-transform: none; widows: 2; word-spacing: 0px; -webkit-text-stroke-width: 0px; background-color: rgb(251, 251, 251); text-decoration-thickness: initial; text-decoration-style: initial; text-decoration-color: initial; float: none; display: inline !important;&quot;&gt;Italy&lt;/span&gt;" style="text;whiteSpace=wrap;html=1;" vertex="1" parent="QVLjxTjnJ6YmT43BdL0h-8">
          <mxGeometry x="45" y="50" width="30" height="40" as="geometry" />
        </mxCell>
        <mxCell id="QVLjxTjnJ6YmT43BdL0h-14" value="" style="group" vertex="1" connectable="0" parent="1">
          <mxGeometry x="36" y="560" width="120" height="90" as="geometry" />
        </mxCell>
        <mxCell id="QVLjxTjnJ6YmT43BdL0h-15" value="" style="rounded=0;whiteSpace=wrap;html=1;" vertex="1" parent="QVLjxTjnJ6YmT43BdL0h-14">
          <mxGeometry width="120" height="80" as="geometry" />
        </mxCell>
        <mxCell id="QVLjxTjnJ6YmT43BdL0h-16" value="" style="rounded=0;whiteSpace=wrap;html=1;" vertex="1" parent="QVLjxTjnJ6YmT43BdL0h-14">
          <mxGeometry x="40" width="40" height="30" as="geometry" />
        </mxCell>
        <mxCell id="QVLjxTjnJ6YmT43BdL0h-17" value="&lt;font style=&quot;font-size: 18px;&quot;&gt;3&lt;/font&gt;" style="text;html=1;align=center;verticalAlign=middle;whiteSpace=wrap;rounded=0;" vertex="1" parent="QVLjxTjnJ6YmT43BdL0h-14">
          <mxGeometry x="30" width="60" height="30" as="geometry" />
        </mxCell>
        <mxCell id="QVLjxTjnJ6YmT43BdL0h-18" value="&lt;span style=&quot;color: rgb(0, 0, 0); font-family: Helvetica; font-size: 12px; font-style: normal; font-variant-ligatures: normal; font-variant-caps: normal; font-weight: 400; letter-spacing: normal; orphans: 2; text-align: left; text-indent: 0px; text-transform: none; widows: 2; word-spacing: 0px; -webkit-text-stroke-width: 0px; background-color: rgb(251, 251, 251); text-decoration-thickness: initial; text-decoration-style: initial; text-decoration-color: initial; float: none; display: inline !important;&quot;&gt;Tokyo&lt;/span&gt;" style="text;whiteSpace=wrap;html=1;" vertex="1" parent="QVLjxTjnJ6YmT43BdL0h-14">
          <mxGeometry x="40" y="30" width="40" height="40" as="geometry" />
        </mxCell>
        <mxCell id="QVLjxTjnJ6YmT43BdL0h-19" value="&lt;span style=&quot;color: rgb(0, 0, 0); font-family: Helvetica; font-size: 12px; font-style: normal; font-variant-ligatures: normal; font-variant-caps: normal; font-weight: 400; letter-spacing: normal; orphans: 2; text-align: left; text-indent: 0px; text-transform: none; widows: 2; word-spacing: 0px; -webkit-text-stroke-width: 0px; background-color: rgb(251, 251, 251); text-decoration-thickness: initial; text-decoration-style: initial; text-decoration-color: initial; float: none; display: inline !important;&quot;&gt;Japan&lt;/span&gt;" style="text;whiteSpace=wrap;html=1;" vertex="1" parent="QVLjxTjnJ6YmT43BdL0h-14">
          <mxGeometry x="40" y="50" width="40" height="40" as="geometry" />
        </mxCell>
        <mxCell id="QVLjxTjnJ6YmT43BdL0h-20" value="" style="group" vertex="1" connectable="0" parent="1">
          <mxGeometry x="196" y="560" width="120" height="90" as="geometry" />
        </mxCell>
        <mxCell id="QVLjxTjnJ6YmT43BdL0h-21" value="" style="rounded=0;whiteSpace=wrap;html=1;" vertex="1" parent="QVLjxTjnJ6YmT43BdL0h-20">
          <mxGeometry width="120" height="80" as="geometry" />
        </mxCell>
        <mxCell id="QVLjxTjnJ6YmT43BdL0h-22" value="" style="rounded=0;whiteSpace=wrap;html=1;" vertex="1" parent="QVLjxTjnJ6YmT43BdL0h-20">
          <mxGeometry x="40" width="40" height="30" as="geometry" />
        </mxCell>
        <mxCell id="QVLjxTjnJ6YmT43BdL0h-23" value="&lt;span style=&quot;font-size: 18px;&quot;&gt;4&lt;/span&gt;" style="text;html=1;align=center;verticalAlign=middle;whiteSpace=wrap;rounded=0;" vertex="1" parent="QVLjxTjnJ6YmT43BdL0h-20">
          <mxGeometry x="30" width="60" height="30" as="geometry" />
        </mxCell>
        <mxCell id="QVLjxTjnJ6YmT43BdL0h-24" value="&lt;span style=&quot;color: rgb(0, 0, 0); font-family: Helvetica; font-size: 12px; font-style: normal; font-variant-ligatures: normal; font-variant-caps: normal; font-weight: 400; letter-spacing: normal; orphans: 2; text-align: left; text-indent: 0px; text-transform: none; widows: 2; word-spacing: 0px; -webkit-text-stroke-width: 0px; background-color: rgb(251, 251, 251); text-decoration-thickness: initial; text-decoration-style: initial; text-decoration-color: initial; float: none; display: inline !important;&quot;&gt;New York&lt;/span&gt;" style="text;whiteSpace=wrap;html=1;" vertex="1" parent="QVLjxTjnJ6YmT43BdL0h-20">
          <mxGeometry x="30" y="30" width="60" height="40" as="geometry" />
        </mxCell>
        <mxCell id="QVLjxTjnJ6YmT43BdL0h-25" value="&lt;span style=&quot;color: rgb(0, 0, 0); font-family: Helvetica; font-size: 12px; font-style: normal; font-variant-ligatures: normal; font-variant-caps: normal; font-weight: 400; letter-spacing: normal; orphans: 2; text-align: left; text-indent: 0px; text-transform: none; widows: 2; word-spacing: 0px; -webkit-text-stroke-width: 0px; background-color: rgb(251, 251, 251); text-decoration-thickness: initial; text-decoration-style: initial; text-decoration-color: initial; float: none; display: inline !important;&quot;&gt;USA&lt;/span&gt;" style="text;whiteSpace=wrap;html=1;" vertex="1" parent="QVLjxTjnJ6YmT43BdL0h-20">
          <mxGeometry x="45" y="50" width="30" height="40" as="geometry" />
        </mxCell>
        <mxCell id="QVLjxTjnJ6YmT43BdL0h-26" value="" style="group" vertex="1" connectable="0" parent="1">
          <mxGeometry x="676" y="240" width="120" height="80" as="geometry" />
        </mxCell>
        <mxCell id="QVLjxTjnJ6YmT43BdL0h-27" value="" style="rounded=0;whiteSpace=wrap;html=1;" vertex="1" parent="QVLjxTjnJ6YmT43BdL0h-26">
          <mxGeometry width="120" height="80" as="geometry" />
        </mxCell>
        <mxCell id="QVLjxTjnJ6YmT43BdL0h-28" value="" style="rounded=0;whiteSpace=wrap;html=1;" vertex="1" parent="QVLjxTjnJ6YmT43BdL0h-26">
          <mxGeometry x="40" width="40" height="30" as="geometry" />
        </mxCell>
        <mxCell id="QVLjxTjnJ6YmT43BdL0h-29" value="&lt;font style=&quot;font-size: 18px;&quot;&gt;5&lt;/font&gt;" style="text;html=1;align=center;verticalAlign=middle;whiteSpace=wrap;rounded=0;" vertex="1" parent="QVLjxTjnJ6YmT43BdL0h-26">
          <mxGeometry x="30" width="60" height="30" as="geometry" />
        </mxCell>
        <mxCell id="QVLjxTjnJ6YmT43BdL0h-30" value="&lt;span style=&quot;color: rgb(0, 0, 0); font-family: Helvetica; font-size: 12px; font-style: normal; font-variant-ligatures: normal; font-variant-caps: normal; font-weight: 400; letter-spacing: normal; orphans: 2; text-align: left; text-indent: 0px; text-transform: none; widows: 2; word-spacing: 0px; -webkit-text-stroke-width: 0px; background-color: rgb(251, 251, 251); text-decoration-thickness: initial; text-decoration-style: initial; text-decoration-color: initial; float: none; display: inline !important;&quot;&gt;London&lt;/span&gt;" style="text;whiteSpace=wrap;html=1;" vertex="1" parent="QVLjxTjnJ6YmT43BdL0h-26">
          <mxGeometry x="40" y="30" width="40" height="40" as="geometry" />
        </mxCell>
        <mxCell id="QVLjxTjnJ6YmT43BdL0h-31" value="" style="group" vertex="1" connectable="0" parent="1">
          <mxGeometry x="36" y="240" width="120" height="90" as="geometry" />
        </mxCell>
        <mxCell id="QVLjxTjnJ6YmT43BdL0h-32" value="" style="rounded=0;whiteSpace=wrap;html=1;" vertex="1" parent="QVLjxTjnJ6YmT43BdL0h-31">
          <mxGeometry width="120" height="80" as="geometry" />
        </mxCell>
        <mxCell id="QVLjxTjnJ6YmT43BdL0h-33" value="" style="rounded=0;whiteSpace=wrap;html=1;" vertex="1" parent="QVLjxTjnJ6YmT43BdL0h-31">
          <mxGeometry x="40" width="40" height="30" as="geometry" />
        </mxCell>
        <mxCell id="QVLjxTjnJ6YmT43BdL0h-34" value="&lt;font style=&quot;font-size: 18px;&quot;&gt;6&lt;/font&gt;" style="text;html=1;align=center;verticalAlign=middle;whiteSpace=wrap;rounded=0;" vertex="1" parent="QVLjxTjnJ6YmT43BdL0h-31">
          <mxGeometry x="30" width="60" height="30" as="geometry" />
        </mxCell>
        <mxCell id="QVLjxTjnJ6YmT43BdL0h-35" value="&lt;span style=&quot;color: rgb(0, 0, 0); font-family: Helvetica; font-size: 12px; font-style: normal; font-variant-ligatures: normal; font-variant-caps: normal; font-weight: 400; letter-spacing: normal; orphans: 2; text-align: left; text-indent: 0px; text-transform: none; widows: 2; word-spacing: 0px; -webkit-text-stroke-width: 0px; background-color: rgb(251, 251, 251); text-decoration-thickness: initial; text-decoration-style: initial; text-decoration-color: initial; float: none; display: inline !important;&quot;&gt;Barcelona&lt;/span&gt;" style="text;whiteSpace=wrap;html=1;" vertex="1" parent="QVLjxTjnJ6YmT43BdL0h-31">
          <mxGeometry x="30" y="30" width="60" height="40" as="geometry" />
        </mxCell>
        <mxCell id="QVLjxTjnJ6YmT43BdL0h-36" value="&lt;span style=&quot;color: rgb(0, 0, 0); font-family: Helvetica; font-size: 12px; font-style: normal; font-variant-ligatures: normal; font-variant-caps: normal; font-weight: 400; letter-spacing: normal; orphans: 2; text-align: left; text-indent: 0px; text-transform: none; widows: 2; word-spacing: 0px; -webkit-text-stroke-width: 0px; background-color: rgb(251, 251, 251); text-decoration-thickness: initial; text-decoration-style: initial; text-decoration-color: initial; float: none; display: inline !important;&quot;&gt;Spain&lt;/span&gt;" style="text;whiteSpace=wrap;html=1;" vertex="1" parent="QVLjxTjnJ6YmT43BdL0h-31">
          <mxGeometry x="40" y="50" width="40" height="40" as="geometry" />
        </mxCell>
        <mxCell id="QVLjxTjnJ6YmT43BdL0h-37" value="" style="group" vertex="1" connectable="0" parent="1">
          <mxGeometry x="356" y="240" width="120" height="90" as="geometry" />
        </mxCell>
        <mxCell id="QVLjxTjnJ6YmT43BdL0h-38" value="" style="rounded=0;whiteSpace=wrap;html=1;" vertex="1" parent="QVLjxTjnJ6YmT43BdL0h-37">
          <mxGeometry width="120" height="80" as="geometry" />
        </mxCell>
        <mxCell id="QVLjxTjnJ6YmT43BdL0h-39" value="" style="rounded=0;whiteSpace=wrap;html=1;" vertex="1" parent="QVLjxTjnJ6YmT43BdL0h-37">
          <mxGeometry x="40" width="40" height="30" as="geometry" />
        </mxCell>
        <mxCell id="QVLjxTjnJ6YmT43BdL0h-40" value="&lt;font style=&quot;font-size: 18px;&quot;&gt;7&lt;/font&gt;" style="text;html=1;align=center;verticalAlign=middle;whiteSpace=wrap;rounded=0;" vertex="1" parent="QVLjxTjnJ6YmT43BdL0h-37">
          <mxGeometry x="30" width="60" height="30" as="geometry" />
        </mxCell>
        <mxCell id="QVLjxTjnJ6YmT43BdL0h-41" value="&lt;span style=&quot;color: rgb(0, 0, 0); font-family: Helvetica; font-size: 12px; font-style: normal; font-variant-ligatures: normal; font-variant-caps: normal; font-weight: 400; letter-spacing: normal; orphans: 2; text-align: left; text-indent: 0px; text-transform: none; widows: 2; word-spacing: 0px; -webkit-text-stroke-width: 0px; background-color: rgb(251, 251, 251); text-decoration-thickness: initial; text-decoration-style: initial; text-decoration-color: initial; float: none; display: inline !important;&quot;&gt;Sydney&lt;/span&gt;" style="text;whiteSpace=wrap;html=1;" vertex="1" parent="QVLjxTjnJ6YmT43BdL0h-37">
          <mxGeometry x="35" y="30" width="50" height="40" as="geometry" />
        </mxCell>
        <mxCell id="QVLjxTjnJ6YmT43BdL0h-42" value="&lt;span style=&quot;color: rgb(0, 0, 0); font-family: Helvetica; font-size: 12px; font-style: normal; font-variant-ligatures: normal; font-variant-caps: normal; font-weight: 400; letter-spacing: normal; orphans: 2; text-align: left; text-indent: 0px; text-transform: none; widows: 2; word-spacing: 0px; -webkit-text-stroke-width: 0px; background-color: rgb(251, 251, 251); text-decoration-thickness: initial; text-decoration-style: initial; text-decoration-color: initial; float: none; display: inline !important;&quot;&gt;Australia&lt;/span&gt;" style="text;whiteSpace=wrap;html=1;" vertex="1" parent="QVLjxTjnJ6YmT43BdL0h-37">
          <mxGeometry x="35" y="50" width="50" height="40" as="geometry" />
        </mxCell>
        <mxCell id="QVLjxTjnJ6YmT43BdL0h-43" value="" style="group" vertex="1" connectable="0" parent="1">
          <mxGeometry x="356" y="560" width="120" height="90" as="geometry" />
        </mxCell>
        <mxCell id="QVLjxTjnJ6YmT43BdL0h-44" value="" style="rounded=0;whiteSpace=wrap;html=1;" vertex="1" parent="QVLjxTjnJ6YmT43BdL0h-43">
          <mxGeometry width="120" height="80" as="geometry" />
        </mxCell>
        <mxCell id="QVLjxTjnJ6YmT43BdL0h-45" value="" style="rounded=0;whiteSpace=wrap;html=1;" vertex="1" parent="QVLjxTjnJ6YmT43BdL0h-43">
          <mxGeometry x="40" width="40" height="30" as="geometry" />
        </mxCell>
        <mxCell id="QVLjxTjnJ6YmT43BdL0h-46" value="&lt;font style=&quot;font-size: 18px;&quot;&gt;8&lt;/font&gt;" style="text;html=1;align=center;verticalAlign=middle;whiteSpace=wrap;rounded=0;" vertex="1" parent="QVLjxTjnJ6YmT43BdL0h-43">
          <mxGeometry x="30" width="60" height="30" as="geometry" />
        </mxCell>
        <mxCell id="QVLjxTjnJ6YmT43BdL0h-47" value="&lt;span style=&quot;color: rgb(0, 0, 0); font-family: Helvetica; font-size: 12px; font-style: normal; font-variant-ligatures: normal; font-variant-caps: normal; font-weight: 400; letter-spacing: normal; orphans: 2; text-align: left; text-indent: 0px; text-transform: none; widows: 2; word-spacing: 0px; -webkit-text-stroke-width: 0px; background-color: rgb(251, 251, 251); text-decoration-thickness: initial; text-decoration-style: initial; text-decoration-color: initial; float: none; display: inline !important;&quot;&gt;Berlin&lt;/span&gt;" style="text;whiteSpace=wrap;html=1;" vertex="1" parent="QVLjxTjnJ6YmT43BdL0h-43">
          <mxGeometry x="40" y="30" width="40" height="40" as="geometry" />
        </mxCell>
        <mxCell id="QVLjxTjnJ6YmT43BdL0h-48" value="&lt;span style=&quot;color: rgb(0, 0, 0); font-family: Helvetica; font-size: 12px; font-style: normal; font-variant-ligatures: normal; font-variant-caps: normal; font-weight: 400; letter-spacing: normal; orphans: 2; text-align: left; text-indent: 0px; text-transform: none; widows: 2; word-spacing: 0px; -webkit-text-stroke-width: 0px; background-color: rgb(251, 251, 251); text-decoration-thickness: initial; text-decoration-style: initial; text-decoration-color: initial; float: none; display: inline !important;&quot;&gt;Germany&lt;/span&gt;" style="text;whiteSpace=wrap;html=1;" vertex="1" parent="QVLjxTjnJ6YmT43BdL0h-43">
          <mxGeometry x="35" y="50" width="50" height="40" as="geometry" />
        </mxCell>
        <mxCell id="QVLjxTjnJ6YmT43BdL0h-49" value="" style="group" vertex="1" connectable="0" parent="1">
          <mxGeometry x="356" y="850" width="120" height="90" as="geometry" />
        </mxCell>
        <mxCell id="QVLjxTjnJ6YmT43BdL0h-50" value="" style="rounded=0;whiteSpace=wrap;html=1;" vertex="1" parent="QVLjxTjnJ6YmT43BdL0h-49">
          <mxGeometry width="120" height="80" as="geometry" />
        </mxCell>
        <mxCell id="QVLjxTjnJ6YmT43BdL0h-51" value="" style="rounded=0;whiteSpace=wrap;html=1;" vertex="1" parent="QVLjxTjnJ6YmT43BdL0h-49">
          <mxGeometry x="40" width="40" height="30" as="geometry" />
        </mxCell>
        <mxCell id="QVLjxTjnJ6YmT43BdL0h-52" value="&lt;font style=&quot;font-size: 18px;&quot;&gt;9&lt;/font&gt;" style="text;html=1;align=center;verticalAlign=middle;whiteSpace=wrap;rounded=0;" vertex="1" parent="QVLjxTjnJ6YmT43BdL0h-49">
          <mxGeometry x="30" width="60" height="30" as="geometry" />
        </mxCell>
        <mxCell id="QVLjxTjnJ6YmT43BdL0h-53" value="&lt;span style=&quot;color: rgb(0, 0, 0); font-family: Helvetica; font-size: 12px; font-style: normal; font-variant-ligatures: normal; font-variant-caps: normal; font-weight: 400; letter-spacing: normal; orphans: 2; text-align: left; text-indent: 0px; text-transform: none; widows: 2; word-spacing: 0px; -webkit-text-stroke-width: 0px; background-color: rgb(251, 251, 251); text-decoration-thickness: initial; text-decoration-style: initial; text-decoration-color: initial; float: none; display: inline !important;&quot;&gt;Dubai&lt;/span&gt;" style="text;whiteSpace=wrap;html=1;" vertex="1" parent="QVLjxTjnJ6YmT43BdL0h-49">
          <mxGeometry x="40" y="30" width="30" height="40" as="geometry" />
        </mxCell>
        <mxCell id="QVLjxTjnJ6YmT43BdL0h-54" value="&lt;span style=&quot;color: rgb(0, 0, 0); font-family: Helvetica; font-size: 12px; font-style: normal; font-variant-ligatures: normal; font-variant-caps: normal; font-weight: 400; letter-spacing: normal; orphans: 2; text-align: left; text-indent: 0px; text-transform: none; widows: 2; word-spacing: 0px; -webkit-text-stroke-width: 0px; background-color: rgb(251, 251, 251); text-decoration-thickness: initial; text-decoration-style: initial; text-decoration-color: initial; float: none; display: inline !important;&quot;&gt;UAE&lt;/span&gt;" style="text;whiteSpace=wrap;html=1;" vertex="1" parent="QVLjxTjnJ6YmT43BdL0h-49">
          <mxGeometry x="45" y="50" width="30" height="40" as="geometry" />
        </mxCell>
        <mxCell id="QVLjxTjnJ6YmT43BdL0h-55" value="" style="group" vertex="1" connectable="0" parent="1">
          <mxGeometry x="516" y="560" width="120" height="90" as="geometry" />
        </mxCell>
        <mxCell id="QVLjxTjnJ6YmT43BdL0h-56" value="" style="rounded=0;whiteSpace=wrap;html=1;" vertex="1" parent="QVLjxTjnJ6YmT43BdL0h-55">
          <mxGeometry width="120" height="80" as="geometry" />
        </mxCell>
        <mxCell id="QVLjxTjnJ6YmT43BdL0h-57" value="" style="rounded=0;whiteSpace=wrap;html=1;" vertex="1" parent="QVLjxTjnJ6YmT43BdL0h-55">
          <mxGeometry x="40" width="40" height="30" as="geometry" />
        </mxCell>
        <mxCell id="QVLjxTjnJ6YmT43BdL0h-58" value="&lt;font style=&quot;font-size: 18px;&quot;&gt;10&lt;/font&gt;" style="text;html=1;align=center;verticalAlign=middle;whiteSpace=wrap;rounded=0;" vertex="1" parent="QVLjxTjnJ6YmT43BdL0h-55">
          <mxGeometry x="30" width="60" height="30" as="geometry" />
        </mxCell>
        <mxCell id="QVLjxTjnJ6YmT43BdL0h-59" value="&lt;span style=&quot;color: rgb(0, 0, 0); font-family: Helvetica; font-size: 12px; font-style: normal; font-variant-ligatures: normal; font-variant-caps: normal; font-weight: 400; letter-spacing: normal; orphans: 2; text-align: left; text-indent: 0px; text-transform: none; widows: 2; word-spacing: 0px; -webkit-text-stroke-width: 0px; background-color: rgb(251, 251, 251); text-decoration-thickness: initial; text-decoration-style: initial; text-decoration-color: initial; float: none; display: inline !important;&quot;&gt;Moscow&lt;/span&gt;" style="text;whiteSpace=wrap;html=1;" vertex="1" parent="QVLjxTjnJ6YmT43BdL0h-55">
          <mxGeometry x="35" y="30" width="50" height="40" as="geometry" />
        </mxCell>
        <mxCell id="QVLjxTjnJ6YmT43BdL0h-60" value="&lt;span style=&quot;color: rgb(0, 0, 0); font-family: Helvetica; font-size: 12px; font-style: normal; font-variant-ligatures: normal; font-variant-caps: normal; font-weight: 400; letter-spacing: normal; orphans: 2; text-align: left; text-indent: 0px; text-transform: none; widows: 2; word-spacing: 0px; -webkit-text-stroke-width: 0px; background-color: rgb(251, 251, 251); text-decoration-thickness: initial; text-decoration-style: initial; text-decoration-color: initial; float: none; display: inline !important;&quot;&gt;Russia&lt;/span&gt;" style="text;whiteSpace=wrap;html=1;" vertex="1" parent="QVLjxTjnJ6YmT43BdL0h-55">
          <mxGeometry x="40" y="50" width="40" height="40" as="geometry" />
        </mxCell>
        <mxCell id="QVLjxTjnJ6YmT43BdL0h-61" style="edgeStyle=orthogonalEdgeStyle;rounded=0;orthogonalLoop=1;jettySize=auto;html=1;exitX=0.5;exitY=0;exitDx=0;exitDy=0;entryX=0.508;entryY=0.75;entryDx=0;entryDy=0;entryPerimeter=0;" edge="1" parent="1" source="4bTrYV1-L5UAAMsCu0EJ-32" target="QVLjxTjnJ6YmT43BdL0h-36">
          <mxGeometry relative="1" as="geometry" />
        </mxCell>
        <mxCell id="QVLjxTjnJ6YmT43BdL0h-63" style="edgeStyle=orthogonalEdgeStyle;rounded=0;orthogonalLoop=1;jettySize=auto;html=1;exitX=0.5;exitY=0;exitDx=0;exitDy=0;entryX=0.496;entryY=0.75;entryDx=0;entryDy=0;entryPerimeter=0;" edge="1" parent="1" source="4bTrYV1-L5UAAMsCu0EJ-35" target="QVLjxTjnJ6YmT43BdL0h-42">
          <mxGeometry relative="1" as="geometry" />
        </mxCell>
        <mxCell id="QVLjxTjnJ6YmT43BdL0h-64" style="edgeStyle=orthogonalEdgeStyle;rounded=0;orthogonalLoop=1;jettySize=auto;html=1;exitX=0.5;exitY=0;exitDx=0;exitDy=0;entryX=0.504;entryY=0.75;entryDx=0;entryDy=0;entryPerimeter=0;" edge="1" parent="1" source="4bTrYV1-L5UAAMsCu0EJ-34" target="QVLjxTjnJ6YmT43BdL0h-13">
          <mxGeometry relative="1" as="geometry" />
        </mxCell>
        <mxCell id="QVLjxTjnJ6YmT43BdL0h-67" style="edgeStyle=orthogonalEdgeStyle;rounded=0;orthogonalLoop=1;jettySize=auto;html=1;exitX=0.5;exitY=0;exitDx=0;exitDy=0;entryX=0.508;entryY=0.75;entryDx=0;entryDy=0;entryPerimeter=0;" edge="1" parent="1" source="4bTrYV1-L5UAAMsCu0EJ-30" target="QVLjxTjnJ6YmT43BdL0h-25">
          <mxGeometry relative="1" as="geometry" />
        </mxCell>
        <mxCell id="QVLjxTjnJ6YmT43BdL0h-68" style="edgeStyle=orthogonalEdgeStyle;rounded=0;orthogonalLoop=1;jettySize=auto;html=1;exitX=0.5;exitY=0;exitDx=0;exitDy=0;entryX=0.505;entryY=0.75;entryDx=0;entryDy=0;entryPerimeter=0;" edge="1" parent="1" source="4bTrYV1-L5UAAMsCu0EJ-36" target="QVLjxTjnJ6YmT43BdL0h-48">
          <mxGeometry relative="1" as="geometry" />
        </mxCell>
      </root>
    </mxGraphModel>
  </diagram>
</mxfile>
